<svg xmlns="http://www.w3.org/2000/svg" width="43.937" height="44.28" viewBox="0 0 43.937 44.28">
  <defs>
    <style>
      .cls-1 {
        fill: #6c6f6e;
        fill-rule: evenodd;
      }
    </style>
  </defs>
  <path id="dribble" class="cls-1" d="M668.568,1077.5a82.14,82.14,0,0,0-3.653-13.5,27.033,27.033,0,0,1,11.693.83,18.893,18.893,0,0,1-8.04,12.67h0Zm-10.484,3.23a18.636,18.636,0,0,1-11.953-4.33c0.248,0.2.421,0.33,0.421,0.33s3.6-7.9,14.723-11.81a0.621,0.621,0,0,1,.127-0.04,79.075,79.075,0,0,1,4.006,14.35,18.626,18.626,0,0,1-7.324,1.5h0Zm-18.763-18.91c0-.2.01-0.39,0.015-0.59a68.228,68.228,0,0,0,19.263-2.69c0.537,1.05,1.051,2.13,1.521,3.21-0.248.07-.493,0.14-0.738,0.23-10.125,3.29-15.261,12.47-15.261,12.47l0.008,0.01a18.922,18.922,0,0,1-4.808-12.64h0Zm10.757-17.09a114.243,114.243,0,0,1,6.968,10.89,68.433,68.433,0,0,1-17.322,2.31,18.906,18.906,0,0,1,10.354-13.2h0Zm3.511-1.26c0,0.01,0,.01,0,0.01a0.217,0.217,0,0,0-.057.01c0.021-.01.038-0.01,0.059-0.02h0Zm16.886,4.17c-0.047.07-2.718,4.17-9.8,6.85a95.556,95.556,0,0,0-7.011-11.03,18.427,18.427,0,0,1,4.422-.54,18.625,18.625,0,0,1,12.391,4.72h0Zm6.365,14a42.956,42.956,0,0,0-13.066-.62c-0.135-.32-0.267-0.65-0.406-0.98-0.391-.92-0.811-1.84-1.248-2.74,7.409-3.05,10.416-7.43,10.453-7.48a18.913,18.913,0,0,1,4.267,11.82h0Zm2.767-4.27a22.34,22.34,0,0,0-1.284-4.16,21.9,21.9,0,0,0-2.025-3.76,22.092,22.092,0,0,0-5.932-5.97,21.562,21.562,0,0,0-3.73-2.05,22.136,22.136,0,0,0-4.129-1.29,21.971,21.971,0,0,0-8.848,0,22.1,22.1,0,0,0-4.128,1.29,21.671,21.671,0,0,0-3.734,2.05,22.158,22.158,0,0,0-9.238,13.89,22.622,22.622,0,0,0,0,8.92,21.868,21.868,0,0,0,1.284,4.15,22.044,22.044,0,0,0,4.705,7.04,22.174,22.174,0,0,0,3.249,2.7,21.62,21.62,0,0,0,3.734,2.04,21.384,21.384,0,0,0,4.128,1.29,21.971,21.971,0,0,0,8.848,0,21.733,21.733,0,0,0,7.859-3.33,22.092,22.092,0,0,0,5.932-5.97,22.371,22.371,0,0,0,2.025-3.77,22.014,22.014,0,0,0,1.284-4.15,22.573,22.573,0,0,0,0-8.92h0Z" transform="translate(-636.125 -1039.69)"/>
</svg>
