<svg xmlns="http://www.w3.org/2000/svg" width="42.906" height="43.24" viewBox="0 0 42.906 43.24">
  <defs>
    <style>
      .cls-1 {
        fill: #6c6f6e;
        fill-rule: evenodd;
      }
    </style>
  </defs>
  <path id="facebook" class="cls-1" d="M572.917,1083.62H552.366a2.378,2.378,0,0,1-2.368-2.39v-38.46a2.378,2.378,0,0,1,2.368-2.39h38.173a2.38,2.38,0,0,1,2.368,2.39v38.46a2.38,2.38,0,0,1-2.368,2.39H579.6v-16.75h5.578l0.835-6.52H579.6v-4.17c0-1.89.521-3.17,3.21-3.17l3.429-.01v-5.83a45.118,45.118,0,0,0-5-.26c-4.945,0-8.329,3.04-8.329,8.63v4.81h-5.592v6.52h5.592v16.75h0Z" transform="translate(-550 -1040.38)"/>
</svg>
