<svg xmlns="http://www.w3.org/2000/svg" width="45.656" height="46" viewBox="0 0 45.656 46">
  <defs>
    <style>
      .cls-1 {
        fill: #6c6f6e;
        fill-rule: evenodd;
      }
    </style>
  </defs>
  <path id="instagram" class="cls-1" d="M831.171,1039c-6.2,0-6.977.02-9.412,0.14a16.844,16.844,0,0,0-5.541,1.06,11.77,11.77,0,0,0-6.677,6.73,17.013,17.013,0,0,0-1.061,5.58c-0.111,2.46-.137,3.24-0.137,9.49s0.026,7.03.137,9.48a16.958,16.958,0,0,0,1.061,5.58,11.695,11.695,0,0,0,6.677,6.73,16.561,16.561,0,0,0,5.541,1.07c2.435,0.11,3.212.14,9.412,0.14s6.977-.03,9.412-0.14a16.567,16.567,0,0,0,5.541-1.07,11.682,11.682,0,0,0,6.676-6.73,16.906,16.906,0,0,0,1.061-5.58c0.111-2.45.138-3.24,0.138-9.48s-0.027-7.03-.138-9.49a16.961,16.961,0,0,0-1.061-5.58,11.757,11.757,0,0,0-6.676-6.73,16.85,16.85,0,0,0-5.541-1.06C838.148,1039.02,837.371,1039,831.171,1039Zm0,4.14c6.1,0,6.817.02,9.224,0.14a12.374,12.374,0,0,1,4.239.79,6.909,6.909,0,0,1,2.625,1.72,7.1,7.1,0,0,1,1.708,2.64,12.818,12.818,0,0,1,.786,4.27c0.109,2.43.133,3.16,0.133,9.3s-0.024,6.87-.133,9.29a12.818,12.818,0,0,1-.786,4.27,7.576,7.576,0,0,1-4.333,4.37,12.628,12.628,0,0,1-4.239.79c-2.406.11-3.128,0.13-9.224,0.13s-6.818-.02-9.225-0.13a12.626,12.626,0,0,1-4.238-.79,7.571,7.571,0,0,1-4.332-4.37,12.792,12.792,0,0,1-.786-4.27c-0.11-2.42-.134-3.15-0.134-9.29s0.024-6.87.134-9.3a12.792,12.792,0,0,1,.786-4.27,7.1,7.1,0,0,1,1.707-2.64,6.925,6.925,0,0,1,2.625-1.72,12.372,12.372,0,0,1,4.238-.79C824.354,1043.16,825.076,1043.14,831.171,1043.14Zm0,7.05A11.81,11.81,0,1,0,842.894,1062,11.761,11.761,0,0,0,831.171,1050.19Zm0,19.47a7.665,7.665,0,1,1,7.609-7.66A7.635,7.635,0,0,1,831.171,1069.66Zm14.925-19.94a2.74,2.74,0,1,1-2.739-2.76A2.752,2.752,0,0,1,846.1,1049.72Z" transform="translate(-808.344 -1039)"/>
</svg>
