<svg xmlns="http://www.w3.org/2000/svg" width="45.656" height="46" viewBox="0 0 45.656 46">
  <defs>
    <style>
      .cls-1 {
        fill: #6c6f6e;
        fill-rule: evenodd;
      }
    </style>
  </defs>
  <path id="skype" class="cls-1" d="M766.228,1066.88a21.646,21.646,0,0,0-21.274-26.28,21.8,21.8,0,0,0-3.723.32,12.648,12.648,0,0,0-19.347,10.62,12.461,12.461,0,0,0,1.734,6.35,21.788,21.788,0,0,0,25.325,25.62,12.643,12.643,0,0,0,18.6-11.06A12.415,12.415,0,0,0,766.228,1066.88Zm-10.1,5.7a9.969,9.969,0,0,1-4.427,3.33,17.8,17.8,0,0,1-6.8,1.19,16.692,16.692,0,0,1-7.8-1.63,10.068,10.068,0,0,1-3.584-3.16,6.822,6.822,0,0,1-1.393-3.91,2.721,2.721,0,0,1,.907-2.04,3.2,3.2,0,0,1,2.274-.84,2.9,2.9,0,0,1,1.917.67,4.944,4.944,0,0,1,1.278,1.85,10.825,10.825,0,0,0,1.247,2.2,4.9,4.9,0,0,0,1.829,1.41,9.088,9.088,0,0,0,7.548-.58,3.163,3.163,0,0,0,1.614-2.7,2.666,2.666,0,0,0-.84-2.05,6.108,6.108,0,0,0-2.326-1.28c-0.99-.3-2.332-0.63-3.994-0.98a31.49,31.49,0,0,1-5.707-1.7,9.329,9.329,0,0,1-3.741-2.71,6.762,6.762,0,0,1-1.41-4.34,7.009,7.009,0,0,1,1.479-4.38,9.171,9.171,0,0,1,4.228-2.91,18.438,18.438,0,0,1,6.389-1,17.438,17.438,0,0,1,5.082.66,11.338,11.338,0,0,1,3.594,1.78,7.788,7.788,0,0,1,2.118,2.37,5.163,5.163,0,0,1,.682,2.46,2.927,2.927,0,0,1-.894,2.09,2.99,2.99,0,0,1-2.236.93,2.781,2.781,0,0,1-1.874-.58,7.088,7.088,0,0,1-1.3-1.72,7.174,7.174,0,0,0-1.955-2.4,6.114,6.114,0,0,0-3.637-.83,6.89,6.89,0,0,0-3.771.92,2.473,2.473,0,0,0-1.35,2.08,1.86,1.86,0,0,0,.437,1.25,3.753,3.753,0,0,0,1.3.98,9.2,9.2,0,0,0,1.753.68c0.6,0.17,1.618.41,3.011,0.73,1.764,0.38,3.383.8,4.814,1.26a15.614,15.614,0,0,1,3.728,1.68,7.428,7.428,0,0,1,2.453,2.58,7.662,7.662,0,0,1,.886,3.81A8.187,8.187,0,0,1,756.124,1072.58Z" transform="translate(-721.875 -1039)"/>
</svg>
