<svg xmlns="http://www.w3.org/2000/svg" xmlns:xlink="http://www.w3.org/1999/xlink" version="1.1" id="Layer_1" x="0px" y="0px" viewBox="0 0 100 100" enable-background="new 0 0 100 100" xml:space="preserve" height="100px" width="100px">
<g>
	<g>
		<g>
			<g>
			</g>
		</g>
		<g>
		</g>
	</g>
</g>
<g>
	<g>
		<g>
			<g>
			</g>
		</g>
		<g>
		</g>
	</g>
</g>
<g>
	<g>
		<g>
			<g>
			</g>
		</g>
		<g>
		</g>
	</g>
</g>
<g>
	<g>
		<g>
			<g>
			</g>
		</g>
		<g>
		</g>
	</g>
</g>
<g>
	<g>
		<g>
			<g>
			</g>
		</g>
		<g>
		</g>
	</g>
</g>
<g>
	<g>
		<g>
			<g>
			</g>
		</g>
		<g>
		</g>
	</g>
</g>
<g>
	<g>
		<g>
			<g>
			</g>
		</g>
		<g>
		</g>
	</g>
</g>
<g>
	<g>
		<g>
			<g>
			</g>
		</g>
		<g>
		</g>
	</g>
</g>
<g>
	<g>
		<g>
			<g>
			</g>
		</g>
		<g>
		</g>
	</g>
</g>
<g>
	<g>
		<g>
			<g>
			</g>
		</g>
		<g>
		</g>
	</g>
</g>
<ellipse fill="#000000" cx="60.941" cy="25.712" rx="1.672" ry="1.97"/>
<ellipse fill="#000000" cx="38.911" cy="27.214" rx="1.672" ry="1.97"/>
<g>
	<path fill="#000000" d="M53.126,37.263L53.126,37.263c-2.771,0-5.078-4.379-5.331-4.878c-0.114-0.225-0.108-0.492,0.016-0.711   c1.398-2.461,2.984-2.977,4.068-2.977c1.257,0,2.128,0.671,2.223,0.747c0.032,0.026,0.062,0.054,0.089,0.084   c0.564,0.63,1.705,4.356,0.928,6.347c-0.316,0.809-0.933,1.297-1.739,1.375C53.295,37.259,53.211,37.263,53.126,37.263z    M49.327,32.066c0.869,1.562,2.501,3.695,3.8,3.696c0,0,0,0,0,0c0.036,0,0.072-0.002,0.109-0.005   c0.182-0.018,0.329-0.084,0.453-0.353c0.562-1.209-0.254-4.215-0.6-4.84c-0.171-0.11-0.632-0.367-1.21-0.367   C50.778,30.197,49.91,31.146,49.327,32.066z"/>
</g>
<path fill="#000000" d="M90.012,33.152c-1.211-0.593-3.328-0.722-6.535,2.033c-1.424,1.222-3.403,1.572-5.886,1.041  c-0.169-0.036-0.335-0.024-0.493,0.013C72.705,19.885,64.476,6.113,45.563,6.113c-23.306,0.011-26.912,15.133-30.73,31.143  c-0.931,3.904-1.894,7.94-3.164,11.794C8.239,59.46,8.98,68.169,13.873,74.933c2.443,3.377,5.781,5.968,9.541,7.932  c-1.202,0.888-2.051,2.04-1.901,3.506c0.216,2.102,1.722,3.371,3.946,3.178c-0.075,0.524-0.097,1.044-0.062,1.54  c0.114,1.636,2.008,3.071,4.053,3.071c0.596,0,2.122-0.154,3.244-1.59c0.595,0.833,1.49,1.456,2.794,1.456c0,0,0,0,0,0  c0.45,0,0.93-0.08,1.427-0.236c0.89-0.281,1.552-0.875,1.916-1.716c0.519-1.2,0.391-2.777-0.103-4.549  c1.672,0.208,3.264,0.325,4.727,0.374c0.224,0.01,0.443,0.015,0.665,0.021c0.007,0,0.014,0,0.021,0  c0.538,0.016,1.075,0.031,1.599,0.031c2.353,0,5.358-0.163,8.612-0.7c-0.353,1.912-0.347,3.593,0.323,4.788  c0.449,0.8,1.169,1.322,2.083,1.51c0.354,0.073,0.698,0.11,1.022,0.11c1.017,0,1.897-0.365,2.543-1.056  c0.202-0.216,0.371-0.452,0.513-0.699c1.062,1.103,2.298,1.269,2.947,1.269c1.199,0,2.412-0.514,3.244-1.375  c0.613-0.633,0.936-1.387,0.912-2.12c-0.017-0.497-0.092-1.01-0.221-1.525c0.652-0.014,1.548-0.158,2.31-0.729  c0.588-0.442,1.29-1.293,1.288-2.838c-0.001-1.359-0.828-2.361-1.965-3.105c-0.32,0.224-0.637,0.455-0.964,0.664  c2.139-1.374,4.152-3.045,5.907-5.121c4.71-5.574,6.791-12.971,6.23-22.032c0.753-0.21,1.487-0.458,2.179-0.781  c5.79-2.699,9.413-9.104,9.715-15.232C92.561,36.094,91.684,33.971,90.012,33.152z M36.765,91.179  c-0.105,0.244-0.258,0.378-0.527,0.462c-0.278,0.088-0.53,0.132-0.75,0.132c0,0,0,0,0,0c-1.458,0-1.584-2.512-1.586-2.533  c-0.021-0.582-0.484-1.053-1.066-1.083c-0.572-0.022-1.091,0.389-1.173,0.967c-0.147,1.04-0.63,2.785-2.213,2.785  c-1.005,0-1.787-0.685-1.807-0.976c-0.061-0.866,0.132-1.847,0.542-2.763c0.156-0.349,0.146-0.803-0.062-1.123  c-0.207-0.32-0.563-0.514-0.945-0.514c-0.265,0-0.628,0.087-0.944,0.522c-0.179,0.096-0.653,0.26-1.183,0.26  c-1.035,0-1.236-0.564-1.298-1.174c-0.074-0.719,0.837-1.472,2.102-2.113c0,0,0,0,0,0c1.057,0.457,2.13,0.886,3.227,1.256  c2.439,0.865,4.859,1.458,7.17,1.865C36.798,88.744,37.138,90.315,36.765,91.179z M69.063,84.587  c0.001,0.743-0.292,0.963-0.389,1.036c-0.239,0.18-0.618,0.279-1.065,0.279c-0.432,0-0.773-0.093-0.917-0.149  c-0.219-0.245-0.561-0.429-0.881-0.429c-0.402,0-0.774,0.215-0.975,0.563c-0.201,0.349-0.175,0.825,0.027,1.173  c0.502,0.868,0.795,1.824,0.824,2.692c0.002,0.074-0.07,0.263-0.28,0.48c-0.404,0.418-1.042,0.688-1.626,0.688  c-1.359,0-1.99-1.388-2.279-2.553c-0.141-0.565-0.688-0.932-1.267-0.84c-0.576,0.09-0.988,0.605-0.949,1.188  c0.022,0.335-0.015,1.715-0.608,2.35c-0.137,0.147-0.38,0.343-0.898,0.343c-0.172,0-0.363-0.021-0.569-0.063  c-0.276-0.057-0.442-0.175-0.572-0.406c-0.467-0.832-0.279-2.464,0.115-4.141c1.391-0.305,2.81-0.685,4.228-1.156  c0.045-0.014,0.089-0.029,0.134-0.043c0.242-0.081,0.483-0.159,0.725-0.245c2.159-0.733,3.996-1.57,5.42-2.445  c0,0-0.001,0-0.001,0.001C68.322,83.379,69.063,83.957,69.063,84.587z M68.076,79.367c-0.219,0.289-0.542,0.594-0.937,0.905  c-1.904,1.221-3.921,2.182-5.968,2.924c-4.108,1.399-9.652,2.482-15.893,2.482c-0.547,0-1.125-0.012-1.718-0.031  c-4.134-0.175-8.61-0.861-12.867-2.192c-2.185-0.719-4.388-1.648-6.531-2.86c-1.191-5.353,0.052-12.519,2.992-19.078  c6.042-0.381,11.606-4.495,14.333-9.664c1.348-2.553,1.45-4.848,0.28-6.296c-0.023-0.029-0.056-0.057-0.081-0.085  c0.128-0.054,0.254-0.115,0.383-0.166c3.462-1.361,7.096-2.08,10.508-2.08c4.642,0,12.913,1.376,16.157,10.593  C73.571,67.57,69.784,77.109,68.076,79.367z M72.573,75.57c-0.176,0.208-0.368,0.392-0.55,0.592  c1.551-4.873,2.422-12.894-1.166-23.09c-2.705-7.688-9.368-12.097-18.281-12.097c-3.691,0-7.61,0.773-11.332,2.236  c-0.73,0.287-1.445,0.624-2.146,0.998c-1.031-0.139-2.357-0.062-4.114,0.431c-1.807,0.506-3.749-0.013-5.774-1.543  c-0.497-0.375-1.202-0.276-1.577,0.22c-0.375,0.496-0.276,1.202,0.22,1.577c2.617,1.978,5.223,2.622,7.739,1.914  c2.225-0.623,3.836-0.562,4.423,0.165c0.551,0.683,0.347,2.187-0.52,3.831c-3.318,6.288-11.38,10.836-18.624,7.218  c-0.555-0.276-1.232-0.052-1.51,0.504c-0.278,0.556-0.052,1.232,0.504,1.51c2.104,1.051,4.264,1.52,6.38,1.52  c-0.517,0-1.036-0.03-1.557-0.088c-2.547,6.032-3.716,12.477-3.042,17.782c-2.308-1.548-4.342-3.413-5.95-5.636  c-4.445-6.146-5.081-14.173-1.889-23.859c1.3-3.944,2.273-8.028,3.215-11.978C20.786,22,24.036,8.375,45.581,8.365  c22.096,0,28.602,20.84,32.052,41.226C79.503,60.642,77.801,69.383,72.573,75.57z M90.169,38.866  c-0.29,5.856-4.009,11.99-9.841,13.843c-0.122-1.142-0.274-2.303-0.475-3.494c-0.607-3.587-1.311-7.184-2.169-10.692  c0,0.001,0,0.001,0.001,0.002c2.95,0.51,5.396-0.029,7.258-1.631c1.754-1.505,3.24-2.131,4.079-1.719  C89.81,35.56,90.26,37.009,90.169,38.866z"/>
</svg>