<svg xmlns="http://www.w3.org/2000/svg" xmlns:xlink="http://www.w3.org/1999/xlink" version="1.1" id="Your_Icon" x="0px" y="0px" width="48px" height="48px" viewBox="17 176.375 48 48" enable-background="new 17 176.375 48 48" xml:space="preserve">
<path fill="#000000" d="M41,176.375c-13.255,0-24,10.745-24,24s10.745,24,24,24s24-10.745,24-24S54.255,176.375,41,176.375z   M38.397,206.572l-4.466,4.468l2.943,2.942c0.893,0.893,0.59,1.623-0.672,1.623l-7.584-0.002c-1.264,0-2.297-1.033-2.296-2.295  v-7.584c0-1.264,0.729-1.563,1.622-0.672l2.942,2.942l4.468-4.47c0.893-0.893,2.309-0.938,3.146-0.102  C39.338,204.264,39.291,205.68,38.397,206.572z M38.501,198.126c-0.837,0.838-2.253,0.792-3.146-0.101l-4.468-4.469l-2.942,2.943  c-0.893,0.893-1.623,0.591-1.623-0.672l0.001-7.584c0-1.264,1.033-2.296,2.296-2.296l7.584-0.001c1.262,0,1.563,0.729,0.672,1.621  l-2.943,2.943l4.467,4.467C39.292,195.873,39.338,197.289,38.501,198.126z M55.176,213.309c0,1.265-1.031,2.297-2.297,2.297h-7.583  c-1.263,0-1.563-0.729-0.672-1.621l2.94-2.942l-4.467-4.467c-0.893-0.894-0.938-2.31-0.102-3.146  c0.836-0.838,2.253-0.793,3.146,0.102l4.467,4.468l2.942-2.942c0.894-0.894,1.621-0.592,1.622,0.672v7.58H55.176z M53.557,196.5  l-2.943-2.941l-4.467,4.467c-0.895,0.894-2.311,0.938-3.146,0.103c-0.837-0.838-0.791-2.254,0.102-3.146l4.467-4.467l-2.94-2.943  c-0.894-0.893-0.591-1.623,0.672-1.623l7.583,0.001c1.266,0,2.299,1.032,2.299,2.296v7.583  C55.176,197.092,54.445,197.395,53.557,196.5z"/>
</svg>