<svg xmlns="http://www.w3.org/2000/svg" xmlns:xlink="http://www.w3.org/1999/xlink" version="1.1" id="Layer_1" x="0px" y="0px" width="100px" height="100px" viewBox="0 0 100 100" enable-background="new 0 0 100 100" xml:space="preserve">
<path d="M73.765,15.158v13.375c-0.022-0.011-0.058-0.011-0.082-0.011c-0.349-0.059-0.708-0.105-1.104-0.128  c-0.339-0.035-0.698-0.07-1.047-0.081c-0.548-0.047-1.117-0.07-1.838-0.07c-0.477,0-0.942,0.023-1.396,0.047l-0.349,0.023v-7.339  H11.091v36.146h28.599c-0.023,0.384-0.035,0.779-0.035,1.163c0,0.511,0.012,1.047,0.046,1.559c0.023,0.511,0.058,1.035,0.104,1.431  c0.046,0.5,0.116,0.999,0.175,1.465c0.035,0.221,0.069,0.43,0.104,0.652l0.011,0.302l0.117,0.371  c0.082,0.408,0.174,0.826,0.268,1.222c0.082,0.338,0.174,0.686,0.267,1.047l0.419,1.477l0.058,0.059  c0.047,0.128,0.082,0.256,0.128,0.36c0.244,0.732,0.512,1.407,0.802,2.048c0.187,0.418,0.373,0.836,0.558,1.208  c0.268,0.57,0.559,1.118,0.838,1.594c0.535,0.941,1.116,1.861,1.698,2.652c0.012,0.022,0.023,0.033,0.047,0.058  c-0.372-0.069-0.791-0.104-1.256-0.104h-9.037c-4.547,0-4.687,3.535-4.687,3.535s-8.92,0-9.665,0c-0.756,0-2.233-0.779-2.233-2.71  c0-1.941,1.14-3.116,2.244-3.116c1.093,0,6.572-0.012,10.351-0.012c3.78,0,4.757-2.709,4.757-4.047c0-0.896,0-6.396,0-6.396H5.276  V15.158H73.765z"/>
<path d="M61.065,33.79c1.732-0.605,3.559-1.047,5.442-1.268C64.624,32.731,62.798,33.173,61.065,33.79z M73.765,32.638  c0.779,0.117,1.536,0.279,2.292,0.466C75.312,32.905,74.544,32.754,73.765,32.638z M61.065,33.79  c1.732-0.605,3.559-1.047,5.442-1.268C64.624,32.731,62.798,33.173,61.065,33.79z M61.065,33.79  c1.732-0.605,3.559-1.047,5.442-1.268C64.624,32.731,62.798,33.173,61.065,33.79z"/>
<path d="M73.765,32.638c0.779,0.117,1.536,0.279,2.292,0.466C75.312,32.905,74.544,32.754,73.765,32.638z M61.065,33.79  c1.732-0.605,3.559-1.047,5.442-1.268C64.624,32.731,62.798,33.173,61.065,33.79z"/>
<path d="M61.065,33.79c1.732-0.605,3.559-1.047,5.442-1.268C64.624,32.731,62.798,33.173,61.065,33.79z M73.765,32.638  c0.779,0.117,1.536,0.279,2.292,0.466C75.312,32.905,74.544,32.754,73.765,32.638z"/>
<path d="M95.629,56.944c-0.023-0.441-0.058-0.884-0.104-1.314c-0.035-0.43-0.093-0.848-0.162-1.268c0-0.046-0.012-0.093-0.024-0.14  c-0.035-0.302-0.092-0.593-0.15-0.895c-0.059-0.314-0.116-0.617-0.198-0.932c-0.07-0.29-0.14-0.593-0.22-0.884  c-0.06-0.209-0.117-0.418-0.176-0.627c-0.046-0.175-0.104-0.337-0.151-0.5c-0.116-0.349-0.232-0.686-0.359-1.035  c-0.141-0.395-0.291-0.791-0.466-1.174c-0.093-0.244-0.197-0.477-0.314-0.71c-0.115-0.279-0.256-0.546-0.396-0.813  c-0.116-0.256-0.244-0.5-0.384-0.745c-0.244-0.465-0.499-0.907-0.778-1.349c-0.163-0.256-0.326-0.512-0.489-0.756  c-0.023-0.035-0.035-0.058-0.058-0.081c-0.222-0.326-0.454-0.663-0.697-0.977c-0.245-0.337-0.501-0.663-0.768-0.977  c-0.269-0.326-0.536-0.64-0.815-0.942c-0.255-0.279-0.512-0.546-0.779-0.813c-0.034-0.047-0.081-0.093-0.127-0.14  c-0.269-0.268-0.535-0.524-0.814-0.768c-0.326-0.302-0.651-0.582-0.988-0.86c-0.303-0.256-0.628-0.512-0.954-0.756  c-0.302-0.221-0.616-0.442-0.919-0.651c-0.302-0.221-0.628-0.419-0.942-0.617c-0.243-0.151-0.488-0.302-0.731-0.441  c-0.466-0.268-0.942-0.524-1.431-0.768c-0.244-0.116-0.5-0.244-0.745-0.349c-0.057-0.035-0.116-0.058-0.174-0.081  c-0.268-0.128-0.547-0.244-0.826-0.349c-0.466-0.198-0.93-0.372-1.407-0.523c-0.29-0.105-0.593-0.209-0.896-0.302  c-0.023,0-0.046-0.012-0.069-0.012c-0.349-0.105-0.71-0.198-1.058-0.291c-0.756-0.187-1.513-0.349-2.292-0.466  c-0.197-0.035-0.406-0.069-0.604-0.081c-0.314-0.058-0.629-0.093-0.953-0.117c-0.303-0.034-0.617-0.058-0.932-0.07  c-0.522-0.046-1.046-0.058-1.581-0.058c-0.396,0-0.779,0.011-1.163,0.035c-0.197,0.012-0.384,0.023-0.581,0.035  c-0.373,0.023-0.745,0.058-1.105,0.093c-0.116,0-0.222,0.011-0.337,0.046c-1.884,0.221-3.71,0.663-5.442,1.268  c-0.431,0.14-0.861,0.302-1.279,0.488c-0.361,0.151-0.723,0.314-1.082,0.477c-0.349,0.163-0.71,0.337-1.046,0.523  c-0.339,0.175-0.675,0.36-1.001,0.547c-0.013,0-0.023,0.011-0.035,0.023c-0.336,0.197-0.663,0.395-0.988,0.604  c-0.313,0.198-0.628,0.407-0.932,0.628c-0.033,0.012-0.057,0.035-0.093,0.07c-0.267,0.186-0.522,0.384-0.779,0.581  c-0.057,0.035-0.127,0.093-0.197,0.151c-0.267,0.209-0.522,0.418-0.779,0.639c-0.384,0.326-0.768,0.664-1.139,1.035  c-0.198,0.174-0.384,0.372-0.57,0.559c-0.268,0.279-0.535,0.558-0.791,0.849c-0.268,0.291-0.512,0.582-0.756,0.884  c-1.233,1.5-2.303,3.128-3.164,4.884c-0.128,0.256-0.256,0.523-0.372,0.779c-0.128,0.279-0.256,0.558-0.361,0.849  c-0.116,0.244-0.221,0.5-0.302,0.756c-0.117,0.291-0.221,0.582-0.314,0.884c-0.127,0.372-0.244,0.756-0.36,1.14  c-0.104,0.371-0.209,0.756-0.302,1.14v0.035c-0.093,0.383-0.174,0.767-0.244,1.163c-0.07,0.371-0.128,0.743-0.186,1.127  c-0.082,0.489-0.14,0.988-0.163,1.489c-0.035,0.338-0.058,0.687-0.069,1.023c-0.023,0.384-0.035,0.779-0.035,1.163  c0,0.441,0.012,0.895,0.035,1.338c0.023,0.44,0.058,0.884,0.104,1.313c0.035,0.421,0.093,0.839,0.151,1.245  c0.035,0.257,0.082,0.513,0.128,0.757c0,0.033,0.012,0.07,0.023,0.104c0.082,0.441,0.175,0.883,0.279,1.326  c0.104,0.453,0.233,0.906,0.36,1.36c0.012,0.012,0.012,0.034,0.012,0.046c0.128,0.384,0.244,0.756,0.384,1.14  c0.198,0.582,0.418,1.152,0.674,1.711c0.163,0.383,0.337,0.755,0.512,1.115c0.221,0.466,0.465,0.907,0.721,1.35  c0.442,0.79,0.93,1.558,1.465,2.291c0.198,0.278,0.407,0.558,0.617,0.825c0.616,0.815,1.291,1.582,2.023,2.314  c0.245,0.257,0.488,0.5,0.745,0.721c0.15,0.151,0.29,0.28,0.441,0.408c0.21,0.197,0.431,0.384,0.663,0.57  c0.419,0.358,0.837,0.686,1.268,0.999c0.535,0.396,1.094,0.779,1.664,1.128c0.243,0.151,0.5,0.304,0.755,0.453  c0.059,0.036,0.129,0.07,0.186,0.104c0.268,0.152,0.536,0.291,0.804,0.432c0.303,0.162,0.604,0.302,0.906,0.453  c0.512,0.244,1.048,0.478,1.594,0.687c0.408,0.162,0.814,0.314,1.232,0.441c0.326,0.104,0.651,0.209,0.977,0.302  c0.302,0.094,0.605,0.175,0.907,0.257c0.14,0.034,0.268,0.069,0.408,0.094c0.372,0.093,0.755,0.175,1.151,0.242  c0.267,0.06,0.545,0.106,0.824,0.142c0.432,0.069,0.861,0.127,1.305,0.162c0.382,0.047,0.79,0.08,1.186,0.093  c0.488,0.035,0.977,0.047,1.465,0.047c14.34,0,25.97-11.63,25.97-25.97C95.664,57.841,95.652,57.387,95.629,56.944z M69.694,78.437  c-0.384,0-0.779-0.011-1.163-0.035c-0.279-0.011-0.559-0.035-0.838-0.069c-0.198-0.011-0.407-0.035-0.604-0.07  c-0.396-0.045-0.779-0.104-1.163-0.186c-0.045,0-0.093-0.012-0.139-0.023c-0.384-0.07-0.756-0.15-1.129-0.256  c-0.022,0-0.046-0.012-0.081-0.023c-0.407-0.104-0.813-0.22-1.209-0.361c-0.396-0.127-0.792-0.267-1.176-0.429  c-0.185-0.07-0.359-0.14-0.534-0.221c-0.361-0.152-0.709-0.314-1.048-0.489c-0.313-0.162-0.627-0.326-0.929-0.513  c-0.21-0.115-0.42-0.242-0.618-0.371c-0.952-0.581-1.86-1.256-2.697-2c-3.069-2.71-5.314-6.339-6.28-10.455  c-0.023-0.06-0.035-0.104-0.035-0.164c-0.07-0.325-0.139-0.639-0.198-0.965c-0.058-0.313-0.104-0.639-0.14-0.953  c-0.035-0.233-0.058-0.465-0.081-0.698c-0.023-0.232-0.047-0.465-0.058-0.698c-0.023-0.395-0.035-0.778-0.035-1.174  s0.012-0.779,0.035-1.163c0.011-0.232,0.023-0.466,0.058-0.686c0.011-0.187,0.035-0.373,0.058-0.56c0-0.093,0.012-0.197,0.035-0.29  c0.023-0.209,0.058-0.407,0.093-0.604c0.023-0.209,0.058-0.406,0.104-0.617c0.035-0.186,0.081-0.384,0.128-0.568  c0.082-0.421,0.198-0.827,0.326-1.233c0.035-0.152,0.082-0.303,0.139-0.454c0.047-0.174,0.105-0.337,0.163-0.5  c0.082-0.256,0.174-0.5,0.279-0.744c0.105-0.268,0.221-0.535,0.336-0.791c0.116-0.279,0.246-0.547,0.385-0.814  c0.128-0.267,0.268-0.523,0.419-0.779c0.15-0.268,0.302-0.535,0.453-0.791c0.616-1,1.326-1.931,2.105-2.803  c0.197-0.221,0.396-0.441,0.604-0.651c0.209-0.209,0.419-0.418,0.628-0.616c0.232-0.222,0.464-0.442,0.71-0.64  c0.209-0.174,0.418-0.349,0.627-0.512c0.29-0.244,0.604-0.477,0.92-0.686c0.175-0.128,0.336-0.244,0.511-0.349  c0.245-0.163,0.5-0.326,0.757-0.477c0.127-0.082,0.255-0.151,0.384-0.221l0.384-0.209c0.533-0.303,1.104-0.57,1.674-0.814  c0.523-0.209,1.07-0.418,1.617-0.593c0.174-0.059,0.349-0.117,0.534-0.163c0.221-0.07,0.432-0.14,0.651-0.187  c0.233-0.069,0.478-0.116,0.709-0.174c0.036-0.011,0.07-0.011,0.105-0.023c0.093-0.012,0.174-0.035,0.267-0.047  c0.129-0.035,0.246-0.058,0.373-0.07c0.302-0.058,0.604-0.104,0.907-0.139c0.314-0.046,0.617-0.082,0.931-0.105  c0.29-0.023,0.569-0.046,0.86-0.058c0.291-0.012,0.582-0.023,0.884-0.023c1.396,0,2.757,0.14,4.07,0.407  c0.325,0.07,0.652,0.14,0.966,0.232c0.337,0.082,0.686,0.187,1.023,0.291c0.173,0.046,0.337,0.105,0.5,0.163  c0.232,0.081,0.465,0.163,0.687,0.256c0.093,0.035,0.174,0.07,0.256,0.104c0.15,0.058,0.314,0.128,0.453,0.187  c0.046,0.011,0.081,0.035,0.128,0.058c0.128,0.047,0.267,0.104,0.396,0.174c0.791,0.361,1.547,0.779,2.268,1.245  c0.291,0.186,0.582,0.372,0.861,0.581c0.045,0.012,0.08,0.047,0.127,0.093c0.302,0.209,0.593,0.431,0.884,0.663  c0.197,0.151,0.384,0.314,0.57,0.477c0.209,0.186,0.419,0.372,0.628,0.57c0.21,0.186,0.407,0.384,0.605,0.593  c0.324,0.326,0.639,0.674,0.93,1.023c0.116,0.128,0.209,0.255,0.326,0.384c0.012,0.023,0.034,0.035,0.045,0.058  c0.152,0.174,0.291,0.36,0.42,0.547c1.139,1.523,2.07,3.209,2.745,5.024c0.081,0.222,0.162,0.441,0.231,0.662  c0.104,0.291,0.197,0.594,0.279,0.896c0.023,0.069,0.048,0.151,0.059,0.222c0.094,0.313,0.163,0.627,0.232,0.954  c0.151,0.675,0.268,1.36,0.338,2.058c0.022,0.209,0.046,0.418,0.057,0.629c0.024,0.232,0.035,0.464,0.048,0.697  c0.012,0.303,0.022,0.605,0.022,0.907C89.849,69.401,80.813,78.437,69.694,78.437z"/>
<polygon points="14.913,25.673 20.679,25.673 20.679,35.001 17.238,38.442 17.238,31.488 16.003,31.488 16.003,30.301   14.913,30.301 "/>
<polygon points="21.867,25.673 27.633,25.673 27.633,35.001 24.192,38.442 24.192,31.488 22.957,31.488 22.957,30.301   21.867,30.301 "/>
<polygon points="66.955,46.318 67.316,50.77 73.583,50.263 62.403,63.409 61.896,57.14 57.446,57.501 58.566,71.367 72.432,70.246   72.071,65.794 65.806,66.302 76.983,53.155 77.49,59.425 81.942,59.063 80.821,45.197 "/>
</svg>