<svg fill="none" height="20" viewBox="0 0 119 20" width="119" 
    xmlns="http://www.w3.org/2000/svg">
    <path d="m17.8572 9.99997h-5v1.42853h3.4285c-.5 2.1429-2.0714 3.9286-4.1428 4.6429l-8.21429-8.21429c.85714-2.5 3.28571-4.28572 6.07139-4.28572 2.1429 0 4.0715 1.07143 5.2857 2.71429l1.0715-.92857c-1.4286-1.92857-3.7143-3.21429-6.3572-3.21429-3.71425 0-6.85711 2.64286-7.64282 6.14286l9.42852 9.42862c3.4286-.8572 6.0715-4 6.0715-7.71433z" fill="#fff"/>
    <path d="m2.14282 10.0714c0 2 .78572 3.9286 2.28572 5.4286s3.5 2.2857 5.42857 2.2857z" fill="#fff"/>
    <path clip-rule="evenodd" d="m10 0c-5.5 0-10 4.5-10 10s4.5 10 10 10 10-4.5 10-10-4.5-10-10-10zm-5.57143 15.5714c-1.5-1.5-2.28571-3.5-2.28571-5.4285l7.78571 7.7143c-2-.0715-4-.7858-5.5-2.2858zm-2.07139-7.28568 9.35712 9.35718c3.5-.7858 6.1429-3.9286 6.1429-7.6429h-5v1.4286h3.4285c-.5 2.1428-2.0714 3.9285-4.1428 4.6428l-8.21429-8.21426c.92857-2.5 3.28571-4.28571 6.07139-4.28571 2.1429 0 4.0715 1.07143 5.2857 2.71429l1.0715-.92858c-1.4286-1.92857-3.7143-3.21428-6.3572-3.21428-3.71425 0-6.85711 2.64286-7.64282 6.14286z" fill="#639" fill-rule="evenodd"/>
    <g fill="#000">
        <path d="m44.9611 8.45399h2.0036v7.14291h-2.0036v-.9237c-.7231 1.0393-1.6756 1.1546-2.1848 1.1546-2.1843 0-3.6299-1.7154-3.6299-3.8104 0-2.11149 1.4292-3.79426 3.5316-3.79426.542 0 1.6096.09914 2.2831 1.1549zm-3.7451 3.56341c0 1.1381.8213 2.0288 1.9708 2.0288 1.1499 0 1.9713-.8907 1.9713-2.0288 0-1.1384-.8214-2.0127-1.9713-2.0127-1.1495 0-1.9708.8743-1.9708 2.0127z"/>
        <path d="m50.8718 10.1697v5.4273h-2.004v-5.4273h-.7882v-1.71566h.7882v-2.4411h2.004v2.4411h1.3798v1.71566z"/>
        <path d="m56.9177 10.1532c-.4765-.4452-.9529-.47849-1.1663-.47849-.4765 0-.7722.2312-.7722.57759 0 .1815.0823.4617.6407.6432l.4764.1485c.5584.1814 1.3961.462 1.8066 1.0228.2135.297.3613.7258.3613 1.1878 0 .6431-.2134 1.2866-.7882 1.8145-.5751.5278-1.2646.7587-2.1351.7587-1.4785 0-2.3162-.7094-2.7595-1.1875l1.0512-1.2207c.3941.4617.9853.8246 1.5768.8246.5584 0 .9853-.2803.9853-.7752 0-.4456-.3614-.627-.624-.7258l-.46-.165c-.5092-.1814-1.1004-.4126-1.5273-.8578-.3285-.3465-.5423-.792-.5423-1.3693 0-.69284.3285-1.27011.7394-1.61652.5583-.44558 1.281-.51144 1.8558-.51144.5256 0 1.3633.06586 2.2666.75872z"/>
        <path d="m61.2582 9.37803c.7063-.9899 1.7083-1.15489 2.3158-1.15489 2.1024 0 3.4985 1.63302 3.4985 3.79426 0 2.1774-1.4453 3.8104-3.5477 3.8104-.46 0-1.4948-.0824-2.2666-1.1546v.9237h-2.004v-12.02549h2.004zm-.1971 2.63937c0 1.1381.821 2.0288 1.971 2.0288 1.1498 0 1.9708-.8907 1.9708-2.0288 0-1.1384-.821-2.0127-1.9708-2.0127-1.15 0-1.971.8743-1.971 2.0127z"/>
        <path d="m70.3273 14.5247-3.3837-6.07072h2.3325l2.2008 4.05802 1.9709-4.05802h2.2666l-5.732 10.92042h-2.2666z"/>
        <path d="m38.5894 9.65164h-1.9713c0 .00004-3.0342.00008-3.0342.00008v1.97948h2.6101c-.3959 1.3297-1.4027 2.2626-3.314 2.2626-2.0768 0-3.5418-1.6968-3.5418-3.7826 0-2.08584 1.465-3.78258 3.5418-3.78258 1.1711 0 2.2624.5498 2.9743 1.47365l1.6763-1.0522c-1.0785-1.5033-2.8004-2.40095-4.6506-2.40095-3.1637 0-5.7372 2.58467-5.7372 5.76208 0 3.1774 2.3934 5.7621 5.7372 5.7621s5.7372-2.5847 5.7372-5.7621c0-.15556-.0158-.30706-.0278-.45956z"/>
    </g>
    <path d="m87.6877 12.7123c-.6566.7605-1.5826 1.2068-2.6265 1.2068-1.8857 0-3.8051-1.3225-3.8051-3.7693 0-2.03348 1.4648-3.85203 3.7209-3.85203.4041 0 1.6837.08266 2.7107 1.23992v-2.51291c-1.027-.54556-1.9699-.67782-2.7612-.67782-1.5995 0-2.9969.41331-4.125 1.45484-.9597.87621-1.8015 2.31452-1.8015 4.3149 0 1.6202.5051 2.9924 1.8015 4.2157.9429.8763 2.1383 1.5375 4.1082 1.5375 1.2122 0 2.1045-.2975 2.778-.6447z" fill="#639"/>
    <path d="m89.2285 3.56995v12.05205h2.0541v-12.05205z" fill="#639"/>
    <path d="m96.8771 8.23204c-1.3806 0-2.3235.44637-2.9464 1.00847-.724.64476-1.2291 1.63669-1.2291 2.81049 0 1.1573.5051 2.1492 1.2291 2.7939.6229.5621 1.5658 1.0085 2.9464 1.0085s2.3234-.4464 2.9464-1.0085c.7235-.6447 1.2295-1.6366 1.2295-2.7939 0-1.1738-.506-2.16573-1.2295-2.81049-.623-.5621-1.5658-1.00847-2.9464-1.00847zm0 5.83586c-1.1954 0-2.0541-.9258-2.0541-2.0169 0-1.1242.8755-2.0335 2.0541-2.0335 1.1785 0 2.054.9093 2.054 2.0335 0 1.0911-.8586 2.0169-2.054 2.0169z" fill="#639"/>
    <path d="m102.473 8.46349v4.38101c0 .6448.084 1.5045.892 2.1988.674.5787 1.751.8101 2.644.8101.892 0 1.969-.2314 2.643-.8101.808-.6943.892-1.554.892-2.1988v-4.38101h-2.054v4.05041c0 .3802-.033.8927-.438 1.2564-.252.215-.656.3638-1.043.3638-.388 0-.792-.1488-1.044-.3638-.404-.3637-.438-.8762-.438-1.2564v-4.05041z" fill="#639"/>
    <path d="m116.921 9.3893c-.69-1.05806-1.785-1.15726-2.34-1.15726-2.155 0-3.62 1.68629-3.62 3.80246 0 2.0996 1.481 3.8189 3.721 3.8189.522 0 1.498-.1157 2.239-1.1572v.9258h2.054v-12.05205h-2.054zm-1.818.6282c1.178 0 2.02.8762 2.02 2.017 0 1.1407-.842 2.0334-2.02 2.0334-1.179 0-2.021-.8927-2.021-2.0334 0-1.1408.842-2.017 2.021-2.017z" fill="#639"/>
</svg>