<svg width="76" height="21" viewBox="0 0 76 21" fill="none" xmlns="http://www.w3.org/2000/svg">
<path d="M44.9631 8.61268H46.9668V15.7556H44.9631V14.8319C44.2401 15.8712 43.2876 15.9865 42.7784 15.9865C40.5941 15.9865 39.1484 14.2711 39.1484 12.1761C39.1484 10.0646 40.5777 8.38184 42.6801 8.38184C43.2221 8.38184 44.2896 8.48097 44.9631 9.53673V8.61268ZM41.2181 12.1761C41.2181 13.3142 42.0394 14.2049 43.1889 14.2049C44.3388 14.2049 45.1602 13.3142 45.1602 12.1761C45.1602 11.0377 44.3388 10.1634 43.1889 10.1634C42.0394 10.1634 41.2181 11.0377 41.2181 12.1761Z" fill="black"/>
<path d="M50.8743 10.3287V15.7559H48.8703V10.3287H48.082V8.61298H48.8703V6.17188H50.8743V8.61298H52.254V10.3287H50.8743Z" fill="black"/>
<path d="M56.9183 10.3119C56.4419 9.86669 55.9654 9.8334 55.752 9.8334C55.2756 9.8334 54.9798 10.0646 54.9798 10.411C54.9798 10.5925 55.0621 10.8727 55.6205 11.0542L56.0969 11.2027C56.6553 11.3841 57.4931 11.6647 57.9035 12.2255C58.117 12.5225 58.2648 12.9513 58.2648 13.4133C58.2648 14.0564 58.0514 14.6999 57.4767 15.2278C56.9015 15.7556 56.212 15.9865 55.3415 15.9865C53.863 15.9865 53.0253 15.2771 52.582 14.799L53.6332 13.5783C54.0273 14.0399 54.6185 14.4028 55.21 14.4028C55.7684 14.4028 56.1953 14.1226 56.1953 13.6277C56.1953 13.1821 55.8339 13.0006 55.5713 12.9019L55.1113 12.7369C54.6021 12.5554 54.0109 12.3243 53.5841 11.8791C53.2555 11.5326 53.0417 11.0871 53.0417 10.5098C53.0417 9.81695 53.3703 9.23969 53.7811 8.89327C54.3395 8.44769 55.0621 8.38184 55.6369 8.38184C56.1625 8.38184 57.0002 8.44769 57.9035 9.14055L56.9183 10.3119Z" fill="black"/>
<path d="M61.2619 9.53709C61.9681 8.54719 62.9701 8.3822 63.5777 8.3822C65.6801 8.3822 67.0762 10.0152 67.0762 12.1764C67.0762 14.3538 65.6309 15.9868 63.5285 15.9868C63.0685 15.9868 62.0337 15.9045 61.2619 14.8323V15.756H59.2578V3.73047H61.2619V9.53709ZM61.0648 12.1764C61.0648 13.3145 61.8858 14.2053 63.0357 14.2053C64.1856 14.2053 65.0066 13.3145 65.0066 12.1764C65.0066 11.038 64.1856 10.1637 63.0357 10.1637C61.8858 10.1637 61.0648 11.038 61.0648 12.1764Z" fill="black"/>
<path d="M70.3291 14.684L66.9453 8.61328H69.2779L71.4786 12.6713L73.4495 8.61328H75.7161L69.9841 19.5337H67.7175L70.3291 14.684Z" fill="black"/>
<path d="M38.5911 9.81033H36.6198C36.6198 9.81037 33.5857 9.81042 33.5857 9.81042V11.7899H36.1957C35.7998 13.1196 34.793 14.0524 32.8817 14.0524C30.8049 14.0524 29.3399 12.3557 29.3399 10.2699C29.3399 8.18405 30.8049 6.48731 32.8817 6.48731C34.0528 6.48731 35.1441 7.03711 35.856 7.96096L37.5323 6.90876C36.4538 5.40547 34.7319 4.50781 32.8817 4.50781C29.718 4.50781 27.1445 7.09248 27.1445 10.2699C27.1445 13.4473 29.5379 16.0319 32.8817 16.0319C36.2255 16.0319 38.6189 13.4473 38.6189 10.2699C38.6189 10.1143 38.6031 9.96283 38.5911 9.81033Z" fill="black"/>
<path d="M17.8555 10.1589H12.8555V11.5875H16.284C15.784 13.7303 14.2126 15.516 12.1412 16.2303L3.9269 8.01604C4.78404 5.51604 7.21261 3.73033 9.99833 3.73033C12.1412 3.73033 14.0698 4.80176 15.284 6.44462L16.3555 5.51604C14.9269 3.58747 12.6412 2.30176 9.99833 2.30176C6.28404 2.30176 3.14118 4.94462 2.35547 8.44462L11.784 17.8732C15.2126 17.016 17.8555 13.8732 17.8555 10.1589Z" fill="white"/>
<path d="M2.14453 10.2305C2.14453 12.2305 2.93025 14.159 4.43025 15.659C5.93025 17.159 7.93025 17.9448 9.85882 17.9448L2.14453 10.2305Z" fill="white"/>
<path d="M10 0.15918C4.5 0.15918 0 4.65918 0 10.1592C0 15.6592 4.5 20.1592 10 20.1592C15.5 20.1592 20 15.6592 20 10.1592C20 4.65918 15.5 0.15918 10 0.15918ZM4.42857 15.7306C2.92857 14.2306 2.14286 12.2306 2.14286 10.302L9.92857 18.0163C7.92857 17.9449 5.92857 17.2306 4.42857 15.7306ZM11.7143 17.802L2.35714 8.44489C3.14286 4.94489 6.28571 2.30204 10 2.30204C12.6429 2.30204 14.9286 3.58775 16.3571 5.51632L15.2857 6.44489C14.0714 4.80204 12.1429 3.73061 10 3.73061C7.21429 3.73061 4.85714 5.51632 3.92857 8.01632L12.1429 16.2306C14.2143 15.5163 15.7857 13.7306 16.2857 11.5878H12.8571V10.1592H17.8571C17.8571 13.8735 15.2143 17.0163 11.7143 17.802Z" fill="#663399"/>
</svg>
