<svg width="55" height="55" viewBox="0 0 55 55" fill="none" xmlns="http://www.w3.org/2000/svg">
<g clip-path="url(#clip0)">
<path d="M27.33 54.66C42.4239 54.66 54.66 42.4239 54.66 27.33C54.66 12.2361 42.4239 0 27.33 0C12.2361 0 0 12.2361 0 27.33C0 42.4239 12.2361 54.66 27.33 54.66Z" fill="#37C5FD"/>
<path d="M48.48 27.33C48.48 27.33 39.01 41.13 27.32 41.13C15.63 41.13 6.17 27.33 6.17 27.33C6.17 27.33 15.64 13.53 27.33 13.53C39.02 13.53 48.48 27.33 48.48 27.33Z" fill="white"/>
<path d="M27.33 38.43C33.4604 38.43 38.43 33.4604 38.43 27.33C38.43 21.1996 33.4604 16.23 27.33 16.23C21.1996 16.23 16.23 21.1996 16.23 27.33C16.23 33.4604 21.1996 38.43 27.33 38.43Z" fill="#14BF96"/>
<path d="M27.33 33.54C30.7597 33.54 33.54 30.7597 33.54 27.33C33.54 23.9003 30.7597 21.12 27.33 21.12C23.9003 21.12 21.12 23.9003 21.12 27.33C21.12 30.7597 23.9003 33.54 27.33 33.54Z" fill="#05353D"/>
</g>
<defs>
<clipPath id="clip0">
<rect width="54.66" height="54.66" fill="white"/>
</clipPath>
</defs>
</svg>
